{
  "accessors": [
    {
      "bufferView": 2,
      "componentType": 5126,
      "count": 55884,
      "max": [
        0.2836151123046875,
        0.24299193918704987,
        0.6400532722473145
      ],
      "min": [
        -0.2836151123046875,
        -0.24299193918704987,
        -0.6400532722473145
      ],
      "type": "VEC3"
    },
    {
      "bufferView": 2,
      "byteOffset": 670608,
      "componentType": 5126,
      "count": 55884,
      "max": [
        0.9999473094940186,
        0.9999904632568359,
        0.9999920725822449
      ],
      "min": [
        -0.999992847442627,
        -0.9999974966049194,
        -0.9999831318855286
      ],
      "type": "VEC3"
    },
    {
      "bufferView": 3,
      "componentType": 5126,
      "count": 55884,
      "max": [
        0.9999721050262451,
        0.9999708533287048,
        0.9999755024909973,
        -1.0
      ],
      "min": [
        -0.9999657273292542,
        -0.9999901652336121,
        -0.9999107122421265,
        -1.0
      ],
      "type": "VEC4"
    },
    {
      "bufferView": 1,
      "componentType": 5126,
      "count": 55884,
      "max": [
        0.9957765340805054,
        0.9999535083770752
      ],
      "min": [
        1.903901829791721e-05,
        7.510185241699219e-06
      ],
      "type": "VEC2"
    },
    {
      "bufferView": 1,
      "byteOffset": 447072,
      "componentType": 5126,
      "count": 55884,
      "max": [
        0.9957765340805054,
        0.9999535083770752
      ],
      "min": [
        1.903901829791721e-05,
        7.510185241699219e-06
      ],
      "type": "VEC2"
    },
    {
      "bufferView": 1,
      "byteOffset": 894144,
      "componentType": 5126,
      "count": 55884,
      "max": [
        0.9957765340805054,
        0.9999535083770752
      ],
      "min": [
        1.903901829791721e-05,
        7.510185241699219e-06
      ],
      "type": "VEC2"
    },
    {
      "bufferView": 1,
      "byteOffset": 1341216,
      "componentType": 5126,
      "count": 55884,
      "max": [
        0.9957765340805054,
        0.9999535083770752
      ],
      "min": [
        1.903901829791721e-05,
        7.510185241699219e-06
      ],
      "type": "VEC2"
    },
    {
      "bufferView": 1,
      "byteOffset": 1788288,
      "componentType": 5126,
      "count": 55884,
      "max": [
        0.9957765340805054,
        0.9999535083770752
      ],
      "min": [
        1.903901829791721e-05,
        7.510185241699219e-06
      ],
      "type": "VEC2"
    },
    {
      "bufferView": 0,
      "componentType": 5125,
      "count": 300000,
      "type": "SCALAR"
    }
  ],
  "asset": {
    "extras": {
      "author": "Mario Rocha (https://sketchfab.com/Mario_r_o_c_h_a)",
      "license": "CC-BY-4.0 (http://creativecommons.org/licenses/by/4.0/)",
      "source": "https://sketchfab.com/3d-models/day-21-adidas-stan-smith-86e68bc3f04c4b72b2ef0bb6369e3b66",
      "title": "DAY 21 | ADIDAS STAN SMITH"
    },
    "generator": "Sketchfab-12.67.0",
    "version": "2.0"
  },
  "bufferViews": [
    {
      "buffer": 0,
      "byteLength": 1200000,
      "name": "floatBufferViews",
      "target": 34963
    },
    {
      "buffer": 0,
      "byteLength": 2235360,
      "byteOffset": 1200000,
      "byteStride": 8,
      "name": "floatBufferViews",
      "target": 34962
    },
    {
      "buffer": 0,
      "byteLength": 1341216,
      "byteOffset": 3435360,
      "byteStride": 12,
      "name": "floatBufferViews",
      "target": 34962
    },
    {
      "buffer": 0,
      "byteLength": 894144,
      "byteOffset": 4776576,
      "byteStride": 16,
      "name": "floatBufferViews",
      "target": 34962
    }
  ],
  "buffers": [
    {
      "byteLength": 5670720,
      "uri": "scene.bin"
    }
  ],
  "images": [
    {
      "uri": "textures/Material_0_baseColor.jpeg"
    },
    {
      "uri": "textures/Material_0_metallicRoughness.png"
    },
    {
      "uri": "textures/Material_0_normal.jpeg"
    }
  ],
  "materials": [
    {
      "emissiveFactor": [
        1.0,
        1.0,
        1.0
      ],
      "emissiveTexture": {
        "index": 0
      },
      "name": "Material_0",
      "normalTexture": {
        "index": 2,
        "scale": 0.6571600340241008
      },
      "occlusionTexture": {
        "index": 1,
        "strength": 0.5114953783389308
      },
      "pbrMetallicRoughness": {
        "baseColorTexture": {
          "index": 0
        },
        "metallicFactor": 0.3961775259215044,
        "metallicRoughnessTexture": {
          "index": 1
        },
        "roughnessFactor": 0.6571600340241008
      }
    }
  ],
  "meshes": [
    {
      "name": "Object_0",
      "primitives": [
        {
          "attributes": {
            "NORMAL": 1,
            "POSITION": 0,
            "TANGENT": 2,
            "TEXCOORD_0": 3,
            "TEXCOORD_1": 4,
            "TEXCOORD_2": 5,
            "TEXCOORD_3": 6,
            "TEXCOORD_4": 7
          },
          "indices": 8,
          "material": 0,
          "mode": 4
        }
      ]
    }
  ],
  "nodes": [
    {
      "children": [
        1
      ],
      "matrix": [
        0.21655932068824768,
        0.0,
        0.0,
        0.0,
        0.0,
        4.8085828805055115e-17,
        -0.21655932068824768,
        0.0,
        0.0,
        0.21655932068824768,
        4.8085828805055115e-17,
        0.0,
        0.0,
        0.0,
        0.0,
        1.0
      ],
      "name": "Sketchfab_model"
    },
    {
      "children": [
        2
      ],
      "name": "root"
    },
    {
      "children": [
        3
      ],
      "matrix": [
        1.0,
        0.0,
        0.0,
        0.0,
        0.0,
        2.220446049250313e-16,
        1.0,
        0.0,
        0.0,
        -1.0,
        2.220446049250313e-16,
        0.0,
        0.0,
        0.0,
        0.0,
        1.0
      ],
      "name": "GLTF_SceneRootNode"
    },
    {
      "children": [
        4
      ],
      "matrix": [
        -0.1162102951656141,
        0.9930271387254761,
        -0.019805783302225016,
        0.0,
        0.9931952046281274,
        0.11633724265983303,
        0.005378798564655208,
        0.0,
        0.007645443166539277,
        -0.01904593723083876,
        -0.9997893775559858,
        0.0,
        0.0,
        0.26180964708328247,
        0.0,
        1.0
      ],
      "name": "Mesh_0_0"
    },
    {
      "mesh": 0,
      "name": "Object_4"
    }
  ],
  "samplers": [
    {
      "magFilter": 9729,
      "minFilter": 9987,
      "wrapS": 10497,
      "wrapT": 10497
    }
  ],
  "scene": 0,
  "scenes": [
    {
      "name": "Sketchfab_Scene",
      "nodes": [
        0
      ]
    }
  ],
  "textures": [
    {
      "sampler": 0,
      "source": 0
    },
    {
      "sampler": 0,
      "source": 1
    },
    {
      "sampler": 0,
      "source": 2
    }
  ]
}
